# xmcd
#
# Track frame offsets:
#	150
#	19312
#	37199
#	61234
#	82925
#	99886
#	120904
#	140244
#	153207
#	167511
#	188742
#	211114
#	226943
#	252314
#
# Disc length: 3813 seconds
#
# Revision: 1
# Processed by: cddbd v1.5.2PL0 Copyright (c) Steve Scherf et al.
# Submitted via: EasyCDDAExtractor 12.0.4.1
#
DISCID=ab0ee30e
DTITLE=Pack 4
DYEAR=2004
DGENRE=Acid Jazz
TTITLE0=ยิ่งใกล้ยิ่งเจ็บ - Potato 
TTITLE1=ใช่เลย - Ab Normal 
TTITLE2=ให้เธอ - Clash 
TTITLE3=รักเดียวใจเดียว - Kala 
TTITLE4=ทำใจลำบาก - Potato 
TTITLE5=ยอมรับ - Ab Normal 
TTITLE6=ปราสาททราย - Clash 
TTITLE7=ชาวนากับงูเห่า - Kala 
TTITLE8=เอาอะไรมาแลกก็ไม่ยอม - Potato
TTITLE9=ไหนว่าจะไม่หลอกกัน - Ab Normal 
TTITLE10=รักเธอเสมอ - Clash 
TTITLE11=บัวช้ำน้ำขุ่น - Kala 
TTITLE12=ยิ่งสูงยิ่งหนาว (Backing Track)
TTITLE13=DATA
EXTD=Nattawat Choojirawong, album: PACK 4
EXTT0=
EXTT1=
EXTT2=
EXTT3=
EXTT4=
EXTT5=
EXTT6=
EXTT7=
EXTT8=
EXTT9=
EXTT10=
EXTT11=
EXTT12=
EXTT13=
PLAYORDER=
